<svg xmlns="http://www.w3.org/2000/svg" width="225" height="225" viewBox="0 0 225 225" version="1.1"><path d="M 105.245 17.650 C 101.677 19.409, 100.557 21.121, 85.568 47.731 C 79.858 57.867, 74.733 65.766, 73.119 66.915 C 71.295 68.214, 62.091 70.564, 45.620 73.935 C 32.004 76.722, 20.107 79.411, 19.182 79.909 C 13.689 82.871, 10.314 90.932, 12.004 97.052 C 12.671 99.469, 18.072 106.069, 29.571 118.521 C 38.704 128.409, 47.034 138.360, 48.083 140.633 C 49.986 144.756, 49.983 144.821, 46.977 170.371 C 43.608 199.001, 43.696 200.042, 49.941 205.297 C 53.726 208.482, 56.915 209.441, 61.304 208.716 C 63.062 208.425, 74.434 203.645, 86.575 198.094 C 102.255 190.924, 109.755 188, 112.465 188 C 115.171 188, 122.705 190.931, 138.390 198.086 C 150.550 203.633, 161.938 208.413, 163.696 208.708 C 168.220 209.467, 171.440 208.431, 175.421 204.936 C 181.267 199.803, 181.369 198.440, 178.027 170.063 C 175.056 144.836, 175.050 144.675, 176.929 140.599 C 177.967 138.345, 185.721 129.036, 194.158 119.913 C 213.154 99.376, 212.038 100.764, 213.005 96.479 C 214.409 90.255, 211.160 82.790, 205.787 79.893 C 204.845 79.385, 192.975 76.716, 179.409 73.961 C 162.630 70.555, 153.847 68.315, 151.941 66.958 C 150.254 65.757, 145.274 58.101, 139.432 47.731 C 125.027 22.157, 123.424 19.662, 120.170 17.750 C 116.469 15.575, 109.548 15.529, 105.245 17.650 M 108.587 25.250 C 107.198 26.488, 100.849 36.722, 94.477 47.993 C 88.106 59.264, 81.904 69.545, 80.696 70.840 C 76.701 75.123, 71.723 76.742, 47.998 81.476 C 35.074 84.055, 23.495 86.808, 22.266 87.595 C 19.293 89.499, 18.387 93.423, 20.267 96.257 C 21.085 97.491, 28.828 106.150, 37.473 115.500 C 46.119 124.850, 54.039 134.300, 55.074 136.500 C 57.596 141.860, 57.499 148.144, 54.506 173.500 C 53.142 185.050, 52.021 194.978, 52.013 195.561 C 51.988 197.592, 56.094 201, 58.567 201 C 59.936 201, 71.056 196.401, 83.278 190.781 C 104.672 180.943, 105.761 180.561, 112.500 180.537 C 119.296 180.514, 120.143 180.811, 141.560 190.756 C 153.693 196.390, 164.813 201, 166.271 201 C 168.875 201, 173.013 197.648, 172.987 195.561 C 172.979 194.978, 171.858 185.050, 170.494 173.500 C 167.505 148.182, 167.406 141.864, 169.914 136.500 C 170.943 134.300, 178.246 125.510, 186.142 116.966 C 204.664 96.927, 206 95.287, 206 92.598 C 206 87.800, 202.765 86.546, 177.520 81.551 C 153.359 76.770, 148.318 75.145, 144.312 70.847 C 143.109 69.556, 136.913 59.275, 130.543 48 C 119.478 28.414, 115.571 23, 112.500 23 C 111.736 23, 109.975 24.012, 108.587 25.250 M 74.073 112.635 C 72.933 114.084, 72 116.354, 72 117.680 C 72 121.122, 76.238 125, 80 125 C 83.762 125, 88 121.122, 88 117.680 C 88 116.354, 87.067 114.084, 85.927 112.635 C 83 108.913, 77 108.913, 74.073 112.635 M 139.073 112.635 C 136.323 116.130, 136.455 119.546, 139.455 122.545 C 144.368 127.458, 153 124.243, 153 117.500 C 153 116.273, 152.067 114.084, 150.927 112.635 C 148 108.913, 142 108.913, 139.073 112.635 M 103.200 129.200 C 101.627 130.773, 101.685 132.491, 103.425 135.855 C 107.130 143.020, 118.921 142.433, 122.029 134.929 C 124.427 129.140, 118.810 125.308, 115.448 130.439 C 113.335 133.664, 111.677 133.682, 109.592 130.500 C 107.831 127.813, 105.136 127.264, 103.200 129.200" stroke="none" fill="#161316" fill-rule="evenodd"/><path d="M 111.269 15.693 C 112.242 15.947, 113.592 15.930, 114.269 15.656 C 114.946 15.382, 114.150 15.175, 112.500 15.195 C 110.850 15.215, 110.296 15.439, 111.269 15.693 M 108.587 25.250 C 107.198 26.488, 100.849 36.722, 94.477 47.993 C 88.106 59.264, 81.904 69.545, 80.696 70.840 C 76.701 75.123, 71.723 76.742, 47.998 81.476 C 35.074 84.055, 23.495 86.808, 22.266 87.595 C 19.293 89.499, 18.387 93.423, 20.267 96.257 C 21.085 97.491, 28.828 106.150, 37.473 115.500 C 46.119 124.850, 54.039 134.300, 55.074 136.500 C 57.596 141.860, 57.499 148.144, 54.506 173.500 C 53.142 185.050, 52.021 194.978, 52.013 195.561 C 51.988 197.592, 56.094 201, 58.567 201 C 59.936 201, 71.056 196.401, 83.278 190.781 C 104.672 180.943, 105.761 180.561, 112.500 180.537 C 119.296 180.514, 120.143 180.811, 141.560 190.756 C 153.693 196.390, 164.813 201, 166.271 201 C 168.875 201, 173.013 197.648, 172.987 195.561 C 172.979 194.978, 171.858 185.050, 170.494 173.500 C 167.505 148.182, 167.406 141.864, 169.914 136.500 C 170.943 134.300, 178.246 125.510, 186.142 116.966 C 204.664 96.927, 206 95.287, 206 92.598 C 206 87.800, 202.765 86.546, 177.520 81.551 C 153.359 76.770, 148.318 75.145, 144.312 70.847 C 143.109 69.556, 136.913 59.275, 130.543 48 C 119.478 28.414, 115.571 23, 112.500 23 C 111.736 23, 109.975 24.012, 108.587 25.250 M 74.405 65.250 C 72.500 67.500, 72.500 67.500, 74.750 65.595 C 76.864 63.805, 77.455 63, 76.655 63 C 76.465 63, 75.453 64.013, 74.405 65.250 M 149.500 65 C 150.495 66.100, 151.535 67, 151.810 67 C 152.085 67, 151.495 66.100, 150.500 65 C 149.505 63.900, 148.465 63, 148.190 63 C 147.915 63, 148.505 63.900, 149.500 65 M 162.813 70.683 C 163.534 70.972, 164.397 70.936, 164.729 70.604 C 165.061 70.272, 164.471 70.036, 163.417 70.079 C 162.252 70.127, 162.015 70.364, 162.813 70.683 M 55.813 71.683 C 56.534 71.972, 57.397 71.936, 57.729 71.604 C 58.061 71.272, 57.471 71.036, 56.417 71.079 C 55.252 71.127, 55.015 71.364, 55.813 71.683 M 167.813 71.683 C 168.534 71.972, 169.397 71.936, 169.729 71.604 C 170.061 71.272, 169.471 71.036, 168.417 71.079 C 167.252 71.127, 167.015 71.364, 167.813 71.683 M 50.813 72.683 C 51.534 72.972, 52.397 72.936, 52.729 72.604 C 53.061 72.272, 52.471 72.036, 51.417 72.079 C 50.252 72.127, 50.015 72.364, 50.813 72.683 M 172.813 72.683 C 173.534 72.972, 174.397 72.936, 174.729 72.604 C 175.061 72.272, 174.471 72.036, 173.417 72.079 C 172.252 72.127, 172.015 72.364, 172.813 72.683 M 45.813 73.683 C 46.534 73.972, 47.397 73.936, 47.729 73.604 C 48.061 73.272, 47.471 73.036, 46.417 73.079 C 45.252 73.127, 45.015 73.364, 45.813 73.683 M 177.813 73.683 C 178.534 73.972, 179.397 73.936, 179.729 73.604 C 180.061 73.272, 179.471 73.036, 178.417 73.079 C 177.252 73.127, 177.015 73.364, 177.813 73.683 M 40.813 74.683 C 41.534 74.972, 42.397 74.936, 42.729 74.604 C 43.061 74.272, 42.471 74.036, 41.417 74.079 C 40.252 74.127, 40.015 74.364, 40.813 74.683 M 182.813 74.683 C 183.534 74.972, 184.397 74.936, 184.729 74.604 C 185.061 74.272, 184.471 74.036, 183.417 74.079 C 182.252 74.127, 182.015 74.364, 182.813 74.683 M 35.813 75.683 C 36.534 75.972, 37.397 75.936, 37.729 75.604 C 38.061 75.272, 37.471 75.036, 36.417 75.079 C 35.252 75.127, 35.015 75.364, 35.813 75.683 M 187.813 75.683 C 188.534 75.972, 189.397 75.936, 189.729 75.604 C 190.061 75.272, 189.471 75.036, 188.417 75.079 C 187.252 75.127, 187.015 75.364, 187.813 75.683 M 30.813 76.683 C 31.534 76.972, 32.397 76.936, 32.729 76.604 C 33.061 76.272, 32.471 76.036, 31.417 76.079 C 30.252 76.127, 30.015 76.364, 30.813 76.683 M 192.813 76.683 C 193.534 76.972, 194.397 76.936, 194.729 76.604 C 195.061 76.272, 194.471 76.036, 193.417 76.079 C 192.252 76.127, 192.015 76.364, 192.813 76.683 M 25.813 77.683 C 26.534 77.972, 27.397 77.936, 27.729 77.604 C 28.061 77.272, 27.471 77.036, 26.417 77.079 C 25.252 77.127, 25.015 77.364, 25.813 77.683 M 197.813 77.683 C 198.534 77.972, 199.397 77.936, 199.729 77.604 C 200.061 77.272, 199.471 77.036, 198.417 77.079 C 197.252 77.127, 197.015 77.364, 197.813 77.683 M 15.405 82.250 C 13.500 84.500, 13.500 84.500, 15.750 82.595 C 16.988 81.547, 18 80.535, 18 80.345 C 18 79.545, 17.195 80.136, 15.405 82.250 M 208.500 82 C 209.495 83.100, 210.535 84, 210.810 84 C 211.085 84, 210.495 83.100, 209.500 82 C 208.505 80.900, 207.465 80, 207.190 80 C 206.915 80, 207.505 80.900, 208.500 82 M 11.079 90.583 C 11.127 91.748, 11.364 91.985, 11.683 91.188 C 11.972 90.466, 11.936 89.603, 11.604 89.271 C 11.272 88.939, 11.036 89.529, 11.079 90.583 M 213.079 90.583 C 213.127 91.748, 213.364 91.985, 213.683 91.188 C 213.972 90.466, 213.936 89.603, 213.604 89.271 C 213.272 88.939, 213.036 89.529, 213.079 90.583 M 213.079 95.583 C 213.127 96.748, 213.364 96.985, 213.683 96.188 C 213.972 95.466, 213.936 94.603, 213.604 94.271 C 213.272 93.939, 213.036 94.529, 213.079 95.583 M 14.500 103 C 15.495 104.100, 16.535 105, 16.810 105 C 17.085 105, 16.495 104.100, 15.500 103 C 14.505 101.900, 13.465 101, 13.190 101 C 12.915 101, 13.505 101.900, 14.500 103 M 209.405 103.250 C 207.500 105.500, 207.500 105.500, 209.750 103.595 C 211.864 101.805, 212.455 101, 211.655 101 C 211.465 101, 210.453 102.013, 209.405 103.250 M 74.073 112.635 C 72.933 114.084, 72 116.354, 72 117.680 C 72 121.122, 76.238 125, 80 125 C 83.762 125, 88 121.122, 88 117.680 C 88 116.354, 87.067 114.084, 85.927 112.635 C 83 108.913, 77 108.913, 74.073 112.635 M 139.073 112.635 C 136.323 116.130, 136.455 119.546, 139.455 122.545 C 144.368 127.458, 153 124.243, 153 117.500 C 153 116.273, 152.067 114.084, 150.927 112.635 C 148 108.913, 142 108.913, 139.073 112.635 M 25 114.500 C 26.866 116.425, 28.617 118, 28.892 118 C 29.167 118, 27.866 116.425, 26 114.500 C 24.134 112.575, 22.383 111, 22.108 111 C 21.833 111, 23.134 112.575, 25 114.500 M 198.946 114.750 L 195.500 118.500 199.250 115.054 C 201.313 113.158, 203 111.471, 203 111.304 C 203 110.540, 202.154 111.260, 198.946 114.750 M 36 126.500 C 37.866 128.425, 39.617 130, 39.892 130 C 40.167 130, 38.866 128.425, 37 126.500 C 35.134 124.575, 33.383 123, 33.108 123 C 32.833 123, 34.134 124.575, 36 126.500 M 187.946 126.750 L 184.500 130.500 188.250 127.054 C 190.313 125.158, 192 123.471, 192 123.304 C 192 122.540, 191.154 123.260, 187.946 126.750 M 103.200 129.200 C 101.627 130.773, 101.685 132.491, 103.425 135.855 C 107.130 143.020, 118.921 142.433, 122.029 134.929 C 124.427 129.140, 118.810 125.308, 115.448 130.439 C 113.335 133.664, 111.677 133.682, 109.592 130.500 C 107.831 127.813, 105.136 127.264, 103.200 129.200 M 49.195 146.500 C 49.215 148.150, 49.439 148.704, 49.693 147.731 C 49.947 146.758, 49.930 145.408, 49.656 144.731 C 49.382 144.054, 49.175 144.850, 49.195 146.500 M 175.158 146 C 175.158 147.375, 175.385 147.938, 175.662 147.250 C 175.940 146.563, 175.940 145.438, 175.662 144.750 C 175.385 144.063, 175.158 144.625, 175.158 146 M 48.158 155 C 48.158 156.375, 48.385 156.938, 48.662 156.250 C 48.940 155.563, 48.940 154.438, 48.662 153.750 C 48.385 153.063, 48.158 153.625, 48.158 155 M 176.158 155 C 176.158 156.375, 176.385 156.938, 176.662 156.250 C 176.940 155.563, 176.940 154.438, 176.662 153.750 C 176.385 153.063, 176.158 153.625, 176.158 155 M 47.195 163.500 C 47.215 165.150, 47.439 165.704, 47.693 164.731 C 47.947 163.758, 47.930 162.408, 47.656 161.731 C 47.382 161.054, 47.175 161.850, 47.195 163.500 M 177.195 163.500 C 177.215 165.150, 177.439 165.704, 177.693 164.731 C 177.947 163.758, 177.930 162.408, 177.656 161.731 C 177.382 161.054, 177.175 161.850, 177.195 163.500 M 46.158 172 C 46.158 173.375, 46.385 173.938, 46.662 173.250 C 46.940 172.563, 46.940 171.438, 46.662 170.750 C 46.385 170.063, 46.158 170.625, 46.158 172 M 178.158 172 C 178.158 173.375, 178.385 173.938, 178.662 173.250 C 178.940 172.563, 178.940 171.438, 178.662 170.750 C 178.385 170.063, 178.158 170.625, 178.158 172 M 45.158 181 C 45.158 182.375, 45.385 182.938, 45.662 182.250 C 45.940 181.563, 45.940 180.438, 45.662 179.750 C 45.385 179.063, 45.158 179.625, 45.158 181 M 179.158 181 C 179.158 182.375, 179.385 182.938, 179.662 182.250 C 179.940 181.563, 179.940 180.438, 179.662 179.750 C 179.385 179.063, 179.158 179.625, 179.158 181 M 44.195 189.500 C 44.215 191.150, 44.439 191.704, 44.693 190.731 C 44.947 189.758, 44.930 188.408, 44.656 187.731 C 44.382 187.054, 44.175 187.850, 44.195 189.500 M 180.158 189 C 180.158 190.375, 180.385 190.938, 180.662 190.250 C 180.940 189.563, 180.940 188.438, 180.662 187.750 C 180.385 187.063, 180.158 187.625, 180.158 189 M 48 204.500 C 49.292 205.875, 50.574 207, 50.849 207 C 51.124 207, 50.292 205.875, 49 204.500 C 47.708 203.125, 46.426 202, 46.151 202 C 45.876 202, 46.708 203.125, 48 204.500 M 175.924 204.750 L 173.500 207.500 176.250 205.076 C 177.762 203.742, 179 202.505, 179 202.326 C 179 201.541, 178.190 202.180, 175.924 204.750 M 58.813 209.683 C 59.534 209.972, 60.397 209.936, 60.729 209.604 C 61.061 209.272, 60.471 209.036, 59.417 209.079 C 58.252 209.127, 58.015 209.364, 58.813 209.683 M 164.813 209.683 C 165.534 209.972, 166.397 209.936, 166.729 209.604 C 167.061 209.272, 166.471 209.036, 165.417 209.079 C 164.252 209.127, 164.015 209.364, 164.813 209.683" stroke="none" fill="#faadf2" fill-rule="evenodd"/></svg>